<svg xmlns="http://www.w3.org/2000/svg" viewBox="0 0 960 620" role="img" aria-labelledby="titulo">
  <title id="titulo">Layered material samples illustration</title>
  <defs>
    <linearGradient id="fundo" x1="0" x2="1" y1="0" y2="1">
      <stop offset="0" stop-color="#f7f9fb"/>
      <stop offset="1" stop-color="#edf1f4"/>
    </linearGradient>
    <linearGradient id="azul" x1="0" x2="1" y1="0" y2="1">
      <stop offset="0" stop-color="#dff3ff"/>
      <stop offset="1" stop-color="#7db5d9"/>
    </linearGradient>
    <filter id="sombra" x="-20%" y="-20%" width="140%" height="150%">
      <feDropShadow dx="0" dy="28" stdDeviation="20" flood-color="#1d1d1f" flood-opacity=".14"/>
    </filter>
  </defs>
  <rect width="960" height="620" fill="url(#fundo)"/>
  <g filter="url(#sombra)" transform="translate(202 174)">
    <path d="M70 210 356 74l276 136-286 144L70 210Z" fill="#ffffff"/>
    <path d="M70 210v54l276 142v-52L70 210Z" fill="#cfd8df"/>
    <path d="M632 210v52L346 406v-52l286-144Z" fill="#aebdca"/>
    <path d="M126 166 352 58l220 108-226 114-220-114Z" fill="url(#azul)"/>
    <path d="M202 128 350 58l146 72-148 74-146-76Z" fill="#f8fcff" opacity=".76"/>
    <path d="M256 246 412 170" stroke="#0066cc" stroke-width="10" stroke-linecap="round" opacity=".34"/>
    <path d="M312 274 488 188" stroke="#0066cc" stroke-width="10" stroke-linecap="round" opacity=".22"/>
  </g>
</svg>
