<svg xmlns="http://www.w3.org/2000/svg" viewBox="0 0 960 620" role="img" aria-labelledby="titulo">
  <title id="titulo">Executive project control display illustration</title>
  <defs>
    <linearGradient id="fundo" x1="0" x2="1" y1="0" y2="1">
      <stop offset="0" stop-color="#f8fbff"/>
      <stop offset="1" stop-color="#e4eff9"/>
    </linearGradient>
    <filter id="sombra" x="-20%" y="-20%" width="140%" height="150%">
      <feDropShadow dx="0" dy="28" stdDeviation="24" flood-color="#1d1d1f" flood-opacity=".14"/>
    </filter>
  </defs>
  <rect width="960" height="620" fill="url(#fundo)"/>
  <g filter="url(#sombra)" transform="translate(176 116)">
    <rect width="608" height="348" rx="34" fill="#ffffff"/>
    <rect x="28" y="28" width="552" height="292" rx="24" fill="#f2f7fb"/>
    <rect x="72" y="76" width="186" height="22" rx="11" fill="#0066cc"/>
    <rect x="72" y="126" width="460" height="14" rx="7" fill="#bed0df"/>
    <rect x="72" y="166" width="320" height="14" rx="7" fill="#d4e0e9"/>
    <circle cx="466" cy="226" r="62" fill="none" stroke="#0066cc" stroke-width="18" opacity=".28"/>
    <path d="M466 164a62 62 0 0 1 58 84" fill="none" stroke="#0066cc" stroke-width="18" stroke-linecap="round"/>
    <rect x="78" y="216" width="72" height="72" rx="18" fill="#ffffff"/>
    <rect x="172" y="216" width="72" height="72" rx="18" fill="#ffffff"/>
    <rect x="266" y="216" width="72" height="72" rx="18" fill="#ffffff"/>
  </g>
  <path d="M304 486h352" stroke="#aab9c6" stroke-width="18" stroke-linecap="round" opacity=".5"/>
</svg>
