<svg xmlns="http://www.w3.org/2000/svg" viewBox="0 0 960 620" role="img" aria-labelledby="titulo">
  <title id="titulo">Minimal smartphone product interface illustration</title>
  <defs>
    <linearGradient id="fundo" x1="0" x2="1" y1="0" y2="1">
      <stop offset="0" stop-color="#f7fbff"/>
      <stop offset="1" stop-color="#d9ecff"/>
    </linearGradient>
    <linearGradient id="tela" x1="0" x2="1" y1="0" y2="1">
      <stop offset="0" stop-color="#0b3d91"/>
      <stop offset="1" stop-color="#0066cc"/>
    </linearGradient>
    <filter id="sombra" x="-20%" y="-20%" width="140%" height="150%">
      <feDropShadow dx="0" dy="28" stdDeviation="24" flood-color="#1d1d1f" flood-opacity=".18"/>
    </filter>
  </defs>
  <rect width="960" height="620" fill="url(#fundo)"/>
  <g filter="url(#sombra)" transform="translate(338 70)">
    <rect width="284" height="520" rx="48" fill="#17181b"/>
    <rect x="14" y="14" width="256" height="492" rx="36" fill="url(#tela)"/>
    <rect x="103" y="28" width="78" height="24" rx="12" fill="#111319"/>
    <circle cx="191" cy="40" r="7" fill="#25375d"/>
    <rect x="42" y="92" width="200" height="70" rx="22" fill="#ffffff" opacity=".16"/>
    <rect x="42" y="184" width="200" height="118" rx="24" fill="#ffffff" opacity=".11"/>
    <rect x="64" y="212" width="68" height="16" rx="8" fill="#ffffff" opacity=".74"/>
    <rect x="64" y="246" width="154" height="10" rx="5" fill="#ffffff" opacity=".36"/>
    <rect x="64" y="270" width="120" height="10" rx="5" fill="#ffffff" opacity=".28"/>
    <rect x="42" y="324" width="92" height="112" rx="24" fill="#ffffff" opacity=".18"/>
    <rect x="150" y="324" width="92" height="112" rx="24" fill="#ffffff" opacity=".18"/>
  </g>
</svg>
